<svg id="SvgjsSvg1011" width="288" height="288" xmlns="http://www.w3.org/2000/svg" version="1.1" xmlns:xlink="http://www.w3.org/1999/xlink" xmlns:svgjs="http://svgjs.com/svgjs"><defs id="SvgjsDefs1012"></defs><g id="SvgjsG1013"><svg xmlns="http://www.w3.org/2000/svg" width="288" height="288" fill="none" viewBox="0 0 24 24"><path fill="#f04616" fill-rule="evenodd" d="M13.6348 20.7273V12.766H16.3582L16.7668 9.66246H13.6348V7.68128C13.6348 6.78301 13.8881 6.17085 15.2029 6.17085L16.877 6.17017V3.39424C16.5875 3.35733 15.5937 3.27273 14.437 3.27273C12.0216 3.27273 10.368 4.71881 10.368 7.37391V9.66246H7.63635V12.766H10.368V20.7273H13.6348Z" clip-rule="evenodd" class="color006251 svgShape"></path><mask id="a" width="10" height="18" x="7" y="3" maskUnits="userSpaceOnUse"><path fill="#ffffff" fill-rule="evenodd" d="M13.6348 20.7273V12.766H16.3582L16.7668 9.66246H13.6348V7.68128C13.6348 6.78301 13.8881 6.17085 15.2029 6.17085L16.877 6.17017V3.39424C16.5875 3.35733 15.5937 3.27273 14.437 3.27273C12.0216 3.27273 10.368 4.71881 10.368 7.37391V9.66246H7.63635V12.766H10.368V20.7273H13.6348Z" clip-rule="evenodd" class="colorfff svgShape"></path></mask></svg></g></svg>